<svg t="1754995143528" class="icon" viewBox="0 0 1024 1024" version="1.1" xmlns="http://www.w3.org/2000/svg" p-id="1041" width="200" height="200"><path d="M108.93617 631.829787m27.234043 0l0 0q27.234043 0 27.234042 27.234043l0 305.021276q0 27.234043-27.234042 27.234043l0 0q-27.234043 0-27.234043-27.234043l0-305.021276q0-27.234043 27.234043-27.234043Z" fill="#2976FF" p-id="1042"></path><path d="M490.212766 751.659574m27.234043 0l0 0q27.234043 0 27.234042 27.234043l0 185.191489q0 27.234043-27.234042 27.234043l0 0q-27.234043 0-27.234043-27.234043l0-185.191489q0-27.234043 27.234043-27.234043Z" fill="#2976FF" p-id="1043"></path><path d="M860.595745 566.468085m27.234042 0l0 0q27.234043 0 27.234043 27.234043l0 370.382978q0 27.234043-27.234043 27.234043l0 0q-27.234043 0-27.234042-27.234043l0-370.382978q0-27.234043 27.234042-27.234043Z" fill="#2976FF" p-id="1044"></path><path d="M294.12766 512m27.234042 0l0 0q27.234043 0 27.234043 27.234043l0 424.851063q0 27.234043-27.234043 27.234043l0 0q-27.234043 0-27.234042-27.234043l0-424.851063q0-27.234043 27.234042-27.234043Z" fill="#2976FF" p-id="1045"></path><path d="M675.404255 512m27.234043 0l0 0q27.234043 0 27.234042 27.234043l0 424.851063q0 27.234043-27.234042 27.234043l0 0q-27.234043 0-27.234043-27.234043l0-424.851063q0-27.234043 27.234043-27.234043Z" fill="#2976FF" p-id="1046"></path><path d="M942.297872 32.680851A27.234043 27.234043 0 0 1 969.531915 59.914894v206.978723a27.234043 27.234043 0 1 1-54.468085 0V124.132766L651.394723 357.386894a38.12766 38.12766 0 0 1-49.500595 0.871489L440.635915 225.454298 76.549447 506.324426a27.234043 27.234043 0 0 1-36.951149-3.420596l-1.241872-1.503319a27.234043 27.234043 0 0 1 4.923914-38.193022l374.402724-288.833361a38.12766 38.12766 0 0 1 47.528851 0.762553L625.729362 307.341617 874.659404 87.148936H735.319149a27.234043 27.234043 0 1 1 0-54.468085h206.978723z" fill="#44D7B6" p-id="1047"></path></svg>